<svg id="visual" viewBox="0 0 960 120" width="960" height="120" xmlns="http://www.w3.org/2000/svg" xmlns:xlink="http://www.w3.org/1999/xlink" version="1.1"><path d="M0 12L22.8 12.5C45.7 13 91.3 14 137 13C182.7 12 228.3 9 274 7.8C319.7 6.7 365.3 7.3 411.2 10.5C457 13.7 503 19.3 548.8 21.2C594.7 23 640.3 21 686 19.2C731.7 17.3 777.3 15.7 823 14C868.7 12.3 914.3 10.7 937.2 9.8L960 9L960 0L937.2 0C914.3 0 868.7 0 823 0C777.3 0 731.7 0 686 0C640.3 0 594.7 0 548.8 0C503 0 457 0 411.2 0C365.3 0 319.7 0 274 0C228.3 0 182.7 0 137 0C91.3 0 45.7 0 22.8 0L0 0Z" fill="#21295c"></path><path d="M0 50L22.8 46C45.7 42 91.3 34 137 28.2C182.7 22.3 228.3 18.7 274 21.3C319.7 24 365.3 33 411.2 36.7C457 40.3 503 38.7 548.8 39C594.7 39.3 640.3 41.7 686 44.3C731.7 47 777.3 50 823 49.8C868.7 49.7 914.3 46.3 937.2 44.7L960 43L960 7L937.2 7.8C914.3 8.7 868.7 10.3 823 12C777.3 13.7 731.7 15.3 686 17.2C640.3 19 594.7 21 548.8 19.2C503 17.3 457 11.7 411.2 8.5C365.3 5.3 319.7 4.7 274 5.8C228.3 7 182.7 10 137 11C91.3 12 45.7 11 22.8 10.5L0 10Z" fill="#2f3f6f"></path><path d="M0 55L22.8 51.8C45.7 48.7 91.3 42.3 137 38.5C182.7 34.7 228.3 33.3 274 35.7C319.7 38 365.3 44 411.2 47C457 50 503 50 548.8 49.2C594.7 48.3 640.3 46.7 686 49.2C731.7 51.7 777.3 58.3 823 60.7C868.7 63 914.3 61 937.2 60L960 59L960 41L937.2 42.7C914.3 44.3 868.7 47.7 823 47.8C777.3 48 731.7 45 686 42.3C640.3 39.7 594.7 37.3 548.8 37C503 36.7 457 38.3 411.2 34.7C365.3 31 319.7 22 274 19.3C228.3 16.7 182.7 20.3 137 26.2C91.3 32 45.7 40 22.8 44L0 48Z" fill="#3f5680"></path><path d="M0 59L22.8 58.5C45.7 58 91.3 57 137 54C182.7 51 228.3 46 274 48.2C319.7 50.3 365.3 59.7 411.2 62.3C457 65 503 61 548.8 58.8C594.7 56.7 640.3 56.3 686 58C731.7 59.7 777.3 63.3 823 64.5C868.7 65.7 914.3 64.3 937.2 63.7L960 63L960 57L937.2 58C914.3 59 868.7 61 823 58.7C777.3 56.3 731.7 49.7 686 47.2C640.3 44.7 594.7 46.3 548.8 47.2C503 48 457 48 411.2 45C365.3 42 319.7 36 274 33.7C228.3 31.3 182.7 32.7 137 36.5C91.3 40.3 45.7 46.7 22.8 49.8L0 53Z" fill="#536d91"></path><path d="M0 60L22.8 60.5C45.7 61 91.3 62 137 62C182.7 62 228.3 61 274 63.7C319.7 66.3 365.3 72.7 411.2 74.2C457 75.7 503 72.3 548.8 71.3C594.7 70.3 640.3 71.7 686 73C731.7 74.3 777.3 75.7 823 75.3C868.7 75 914.3 73 937.2 72L960 71L960 61L937.2 61.7C914.3 62.3 868.7 63.7 823 62.5C777.3 61.3 731.7 57.7 686 56C640.3 54.3 594.7 54.7 548.8 56.8C503 59 457 63 411.2 60.3C365.3 57.7 319.7 48.3 274 46.2C228.3 44 182.7 49 137 52C91.3 55 45.7 56 22.8 56.5L0 57Z" fill="#6984a1"></path><path d="M0 68L22.8 72C45.7 76 91.3 84 137 82.7C182.7 81.3 228.3 70.7 274 69.8C319.7 69 365.3 78 411.2 85.2C457 92.3 503 97.7 548.8 95.7C594.7 93.7 640.3 84.3 686 82.2C731.7 80 777.3 85 823 87C868.7 89 914.3 88 937.2 87.5L960 87L960 69L937.2 70C914.3 71 868.7 73 823 73.3C777.3 73.7 731.7 72.3 686 71C640.3 69.7 594.7 68.3 548.8 69.3C503 70.3 457 73.7 411.2 72.2C365.3 70.7 319.7 64.3 274 61.7C228.3 59 182.7 60 137 60C91.3 60 45.7 59 22.8 58.5L0 58Z" fill="#839cb2"></path><path d="M0 121L22.8 121C45.7 121 91.3 121 137 121C182.7 121 228.3 121 274 121C319.7 121 365.3 121 411.2 121C457 121 503 121 548.8 121C594.7 121 640.3 121 686 121C731.7 121 777.3 121 823 121C868.7 121 914.3 121 937.2 121L960 121L960 85L937.2 85.5C914.3 86 868.7 87 823 85C777.3 83 731.7 78 686 80.2C640.3 82.3 594.7 91.7 548.8 93.7C503 95.7 457 90.3 411.2 83.2C365.3 76 319.7 67 274 67.8C228.3 68.7 182.7 79.3 137 80.7C91.3 82 45.7 74 22.8 70L0 66Z" fill="#9eb3c2"></path></svg>